<svg xmlns="http://www.w3.org/2000/svg" viewBox="0 0 64 64">
  <defs>
    <linearGradient id="bg" x1="0" y1="0" x2="1" y2="1">
      <stop offset="0%" stop-color="#0b3442"/>
      <stop offset="100%" stop-color="#04161d"/>
    </linearGradient>
    <linearGradient id="board" x1="0" y1="0" x2="1" y2="1">
      <stop offset="0%" stop-color="#2a1108"/>
      <stop offset="45%" stop-color="#6a3617"/>
      <stop offset="100%" stop-color="#4e2412"/>
    </linearGradient>
    <linearGradient id="string" x1="0" y1="0" x2="0" y2="1">
      <stop offset="0%" stop-color="#f7f3fb"/>
      <stop offset="50%" stop-color="#d7d0da"/>
      <stop offset="100%" stop-color="#b8b2bb"/>
    </linearGradient>
  </defs>

  <rect width="64" height="64" rx="16" fill="url(#bg)"/>
  <rect x="13" y="8" width="38" height="48" rx="9" fill="#02141a" opacity="0.22"/>

  <g transform="rotate(90 32 32)">
    <rect x="8" y="17" width="48" height="30" rx="7" fill="url(#board)"/>
    <rect x="8" y="17" width="7" height="30" fill="#160905"/>

    <g stroke="#f2eff7" stroke-linecap="round">
      <line x1="15" y1="21" x2="56" y2="21" stroke="url(#string)" stroke-width="1"/>
      <line x1="15" y1="26" y2="26" x2="56" stroke="url(#string)" stroke-width="1.3"/>
      <line x1="15" y1="31" x2="56" y2="31" stroke="url(#string)" stroke-width="1.6"/>
      <line x1="15" y1="36" x2="56" y2="36" stroke="url(#string)" stroke-width="1.9"/>
      <line x1="15" y1="41" x2="56" y2="41" stroke="url(#string)" stroke-width="2.2"/>
    </g>

    <g stroke="#b35827" stroke-width="1.6" opacity="0.88">
      <line x1="24" y1="17" x2="24" y2="47"/>
      <line x1="33" y1="17" x2="33" y2="47"/>
      <line x1="42" y1="17" x2="42" y2="47"/>
      <line x1="50" y1="17" x2="50" y2="47"/>
    </g>

    <g>
      <circle cx="28.5" cy="26" r="4.1" fill="#f5ee91" stroke="#5b4a10" stroke-width="1"/>
      <circle cx="38" cy="31" r="4.1" fill="#93bdf1" stroke="#183b5c" stroke-width="1"/>
      <circle cx="46" cy="39" r="4.1" fill="#98ebb8" stroke="#1b5a3b" stroke-width="1"/>
    </g>
  </g>
</svg>
